<svg width="1572" height="795" viewBox="0 0 1572 795" fill="none" xmlns="http://www.w3.org/2000/svg">
<rect width="1572" height="795" fill="#1E1E1E"/>
<g clip-path="url(#clip0_0_1)">
<mask id="mask0_0_1" style="mask-type:alpha" maskUnits="userSpaceOnUse" x="0" y="0" width="1572" height="795">
<path d="M1572 0H0V795H1572V0Z" fill="#D9D9D9"/>
</mask>
<g mask="url(#mask0_0_1)">
<path fill-rule="evenodd" clip-rule="evenodd" d="M925.621 0V55.8672L872 55.8672V56.8672L925.621 56.8672V129.521H872V130.521H925.621V203.176H872V204.176H925.621V276.83H872V277.83H925.621V350.484H872V351.484H925.621V424.139H872V425.139H925.621V497.793H872V498.793H925.621V571.447H872V572.447H925.621V628.316H926.621V572.447H999.277V628.316H1000.28V572.447H1072.93V628.316H1073.93V572.447H1146.58V628.316H1147.58V572.447H1220.24V628.316H1221.24V572.447H1293.9V628.316H1294.9V572.447H1367.55V628.316H1368.55V572.447H1441.2V628.316H1442.2V572.447H1500.32V571.447H1442.2V498.793H1500.32V497.793H1442.2V425.139H1500.32V424.139H1442.2V351.484H1500.32V350.484H1442.2V277.83H1500.32V276.83H1442.2V204.176H1500.32V203.176H1442.2V130.521H1500.32V129.521H1442.2V56.8672H1500.32V55.8672L1442.2 55.8672V0H1441.2V55.8672H1368.55V0H1367.55V55.8672L1294.9 55.8672V0H1293.9V55.8672L1221.24 55.8672V0H1220.24V55.8672L1147.58 55.8672V0H1146.58V55.8672L1073.93 55.8672V0H1072.93V55.8672L1000.28 55.8672V0H999.277V55.8672H926.621V0H925.621ZM1441.2 571.447V498.793H1368.55V571.447H1441.2ZM1367.55 571.447V498.793H1294.9V571.447H1367.55ZM1293.9 571.447V498.793H1221.24V571.447H1293.9ZM1220.24 571.447V498.793H1147.58V571.447H1220.24ZM1146.58 571.447V498.793H1073.93V571.447H1146.58ZM1072.93 571.447V498.793H1000.28V571.447H1072.93ZM999.277 571.447V498.793H926.621V571.447H999.277ZM999.277 497.793H926.621V425.139H999.277V497.793ZM1072.93 497.793H1000.28V425.139H1072.93V497.793ZM1146.58 497.793H1073.93V425.139H1146.58V497.793ZM1220.24 497.793H1147.58V425.139H1220.24V497.793ZM1293.9 497.793H1221.24V425.139H1293.9V497.793ZM1367.55 497.793H1294.9V425.139H1367.55V497.793ZM1441.2 497.793H1368.55V425.139H1441.2V497.793ZM1441.2 424.139V351.484H1368.55V424.139H1441.2ZM1367.55 424.139V351.484H1294.9V424.139H1367.55ZM1293.9 424.139V351.484H1221.24V424.139H1293.9ZM1220.24 424.139V351.484H1147.58V424.139H1220.24ZM1146.58 424.139V351.484H1073.93V424.139H1146.58ZM1072.93 424.139V351.484H1000.28V424.139H1072.93ZM999.277 424.139V351.484H926.621V424.139H999.277ZM999.277 350.484H926.621V277.83H999.277V350.484ZM1072.93 350.484H1000.28V277.83H1072.93V350.484ZM1146.58 350.484H1073.93V277.83H1146.58V350.484ZM1220.24 350.484H1147.58V277.83H1220.24V350.484ZM1293.9 350.484H1221.24V277.83H1293.9V350.484ZM1367.55 350.484H1294.9V277.83H1367.55V350.484ZM1441.2 350.484H1368.55V277.83H1441.2V350.484ZM1441.2 276.83V204.176H1368.55V276.83H1441.2ZM1367.55 276.83V204.176H1294.9V276.83H1367.55ZM1293.9 276.83V204.176H1221.24V276.83H1293.9ZM1220.24 276.83V204.176H1147.58V276.83H1220.24ZM1146.58 276.83V204.176H1073.93V276.83H1146.58ZM1072.93 276.83V204.176H1000.28V276.83H1072.93ZM999.277 276.83V204.176H926.621V276.83H999.277ZM999.277 203.176H926.621V130.521H999.277V203.176ZM1072.93 203.176H1000.28V130.521H1072.93V203.176ZM1146.58 203.176H1073.93V130.521H1146.58V203.176ZM1220.24 203.176H1147.58V130.521H1220.24V203.176ZM1293.9 203.176H1221.24V130.521H1293.9V203.176ZM1367.55 203.176H1294.9V130.521H1367.55V203.176ZM1441.2 203.176H1368.55V130.521H1441.2V203.176ZM1441.2 129.521V56.8672H1368.55V129.521H1441.2ZM1367.55 129.521V56.8672L1294.9 56.8672V129.521H1367.55ZM1293.9 129.521V56.8672H1221.24V129.521H1293.9ZM1220.24 129.521V56.8672L1147.58 56.8672V129.521H1220.24ZM1146.58 129.521V56.8672H1073.93V129.521H1146.58ZM1072.93 129.521V56.8672H1000.28V129.521H1072.93ZM999.277 129.521V56.8672H926.621V129.521H999.277Z" fill="url(#paint0_radial_0_1)"/>
<path fill-rule="evenodd" clip-rule="evenodd" d="M426.621 320V375.867H373V376.867H426.621V449.521H373V450.521H426.621V523.176H373V524.176H426.621V596.83H373V597.83H426.621V670.484H373V671.484H426.621V744.139H373V745.139H426.621V817.793H373V818.793H426.621V891.447H373V892.447H426.621V948.316H427.621V892.447H500.277V948.316H501.277V892.447H573.925V948.316H574.925V892.447H647.582V948.316H648.582V892.447H721.238V948.316H722.238V892.447H794.894V948.316H795.894V892.447H868.543V948.316H869.543V892.447H942.197V948.316H943.197V892.447H1001.32V891.447H943.197V818.793H1001.32V817.793H943.197V745.139H1001.32V744.139H943.197V671.484H1001.32V670.484H943.197V597.83H1001.32V596.83H943.197V524.176H1001.32V523.176H943.197V450.521H1001.32V449.521H943.197V376.867H1001.32V375.867H943.197V320H942.197V375.867H869.543V320H868.543V375.867H795.894V320H794.894V375.867H722.238V320H721.238V375.867H648.582V320H647.582V375.867H574.925V320H573.925V375.867H501.277V320H500.277V375.867H427.621V320H426.621ZM942.197 891.447V818.793H869.543V891.447H942.197ZM868.543 891.447V818.793H795.894V891.447H868.543ZM794.894 891.447V818.793H722.238V891.447H794.894ZM721.238 891.447V818.793H648.582V891.447H721.238ZM647.582 891.447V818.793H574.925V891.447H647.582ZM573.925 891.447V818.793H501.277V891.447H573.925ZM500.277 891.447V818.793H427.621V891.447H500.277ZM500.277 817.793H427.621V745.139H500.277V817.793ZM573.925 817.793H501.277V745.139H573.925V817.793ZM647.582 817.793H574.925V745.139H647.582V817.793ZM721.238 817.793H648.582V745.139H721.238V817.793ZM794.894 817.793H722.238V745.139H794.894V817.793ZM868.543 817.793H795.894V745.139H868.543V817.793ZM942.197 817.793H869.543V745.139H942.197V817.793ZM942.197 744.139V671.484H869.543V744.139H942.197ZM868.543 744.139V671.484H795.894V744.139H868.543ZM794.894 744.139V671.484H722.238V744.139H794.894ZM721.238 744.139V671.484H648.582V744.139H721.238ZM647.582 744.139V671.484H574.925V744.139H647.582ZM573.925 744.139V671.484H501.277V744.139H573.925ZM500.277 744.139V671.484H427.621V744.139H500.277ZM500.277 670.484H427.621V597.83H500.277V670.484ZM573.925 670.484H501.277V597.83H573.925V670.484ZM647.582 670.484H574.925V597.83H647.582V670.484ZM721.238 670.484H648.582V597.83H721.238V670.484ZM794.894 670.484H722.238V597.83H794.894V670.484ZM868.543 670.484H795.894V597.83H868.543V670.484ZM942.197 670.484H869.543V597.83H942.197V670.484ZM942.197 596.83V524.176H869.543V596.83H942.197ZM868.543 596.83V524.176H795.894V596.83H868.543ZM794.894 596.83V524.176H722.238V596.83H794.894ZM721.238 596.83V524.176H648.582V596.83H721.238ZM647.582 596.83V524.176H574.925V596.83H647.582ZM573.925 596.83V524.176H501.277V596.83H573.925ZM500.277 596.83V524.176H427.621V596.83H500.277ZM500.277 523.176H427.621V450.521H500.277V523.176ZM573.925 523.176H501.277V450.521H573.925V523.176ZM647.582 523.176H574.925V450.521H647.582V523.176ZM721.238 523.176H648.582V450.521H721.238V523.176ZM794.894 523.176H722.238V450.521H794.894V523.176ZM868.543 523.176H795.894V450.521H868.543V523.176ZM942.197 523.176H869.543V450.521H942.197V523.176ZM942.197 449.521V376.867H869.543V449.521H942.197ZM868.543 449.521V376.867H795.894V449.521H868.543ZM794.894 449.521V376.867H722.238V449.521H794.894ZM721.238 449.521V376.867H648.582V449.521H721.238ZM647.582 449.521V376.867H574.925V449.521H647.582ZM573.925 449.521V376.867H501.277V449.521H573.925ZM500.277 449.521V376.867H427.621V449.521H500.277Z" fill="url(#paint1_radial_0_1)"/>
<g opacity="0.4" filter="url(#filter0_f_0_1)">
<path d="M1329.86 -29.7337C1188.21 -88.9753 1028.08 -28.6736 972.192 104.954C916.305 238.581 985.829 394.932 1127.48 454.174C1269.13 513.415 1429.26 453.114 1485.15 319.486C1541.04 185.859 1471.51 29.5078 1329.86 -29.7337Z" fill="url(#paint2_linear_0_1)" fill-opacity="0.23"/>
</g>
<g opacity="0.4" filter="url(#filter1_f_0_1)">
<path d="M535.48 86.0514C673.816 231.092 854.595 283.207 939.262 202.454C1023.93 121.701 980.421 -61.3406 842.085 -206.381C703.749 -351.421 522.969 -403.537 438.302 -322.784C353.636 -242.031 397.144 -58.989 535.48 86.0514Z" fill="#8244FF"/>
</g>
</g>
</g>
<defs>
<filter id="filter0_f_0_1" x="758.877" y="-246.511" width="939.586" height="917.463" filterUnits="userSpaceOnUse" color-interpolation-filters="sRGB">
<feFlood flood-opacity="0" result="BackgroundImageFix"/>
<feBlend mode="normal" in="SourceGraphic" in2="BackgroundImageFix" result="shape"/>
<feGaussianBlur stdDeviation="97" result="effect1_foregroundBlur_0_1"/>
</filter>
<filter id="filter1_f_0_1" x="91.0708" y="-664.799" width="1195.42" height="1209.27" filterUnits="userSpaceOnUse" color-interpolation-filters="sRGB">
<feFlood flood-opacity="0" result="BackgroundImageFix"/>
<feBlend mode="normal" in="SourceGraphic" in2="BackgroundImageFix" result="shape"/>
<feGaussianBlur stdDeviation="152" result="effect1_foregroundBlur_0_1"/>
</filter>
<radialGradient id="paint0_radial_0_1" cx="0" cy="0" r="1" gradientUnits="userSpaceOnUse" gradientTransform="translate(1186.16 314.158) rotate(90) scale(238.243 238.243)">
<stop stop-color="#8244FF" stop-opacity="0.29"/>
<stop offset="1" stop-color="#8244FF" stop-opacity="0"/>
</radialGradient>
<radialGradient id="paint1_radial_0_1" cx="0" cy="0" r="1" gradientUnits="userSpaceOnUse" gradientTransform="translate(687.158 634.158) rotate(90) scale(238.243 238.243)">
<stop stop-color="#8244FF" stop-opacity="0.29"/>
<stop offset="1" stop-color="#8244FF" stop-opacity="0"/>
</radialGradient>
<linearGradient id="paint2_linear_0_1" x1="901.372" y1="324.323" x2="1210.23" y2="-114.025" gradientUnits="userSpaceOnUse">
<stop stop-color="#F926AE"/>
<stop offset="0.21875" stop-color="#F926AE"/>
<stop offset="1" stop-color="#F926AE" stop-opacity="0"/>
</linearGradient>
<clipPath id="clip0_0_1">
<rect width="1572" height="795" fill="white"/>
</clipPath>
</defs>
</svg>
