<svg width="667" height="667" viewBox="0 0 667 667" fill="none" xmlns="http://www.w3.org/2000/svg">
  <path d="M473 0H193.667C72.3333 0 0 72.3333 0 193.667V472.667C0 594.333 72.3333 666.667 193.667 666.667H472.667C594 666.667 666.333 594.333 666.333 473V193.667C666.667 72.3333 594.333 0 473 0ZM264.667 375.667C242 409.667 210.667 437.333 174 455.667C170.667 457.333 166.667 458.333 163 458.333C153.667 458.333 145 453.333 140.667 444.667C134.333 432.333 139.333 417.333 152 411C181 396.667 205.667 374.667 223.333 348C229.333 339 229.333 327.667 223.333 318.667C205.333 292 180.667 270 152 255.667C139.333 249.667 134.333 234.667 140.667 222C146.667 209.667 161.667 204.667 174 211C210.667 229.333 242 257 264.667 291C282 316.667 282 350 264.667 375.667ZM500 458.333H366.667C353 458.333 341.667 447 341.667 433.333C341.667 419.667 353 408.333 366.667 408.333H500C513.667 408.333 525 419.667 525 433.333C525 447 513.667 458.333 500 458.333Z" fill="url(#paint0_linear_0_1)"/>
  <defs>
    <linearGradient id="paint0_linear_0_1" x1="558.333" y1="63.3333" x2="69.3334" y2="597.333" gradientUnits="userSpaceOnUse">
      <stop stop-color="#199B5A"/>
      <stop offset="0.46" stop-color="#1B76E9"/>
      <stop offset="1" stop-color="#B800E6"/>
    </linearGradient>
  </defs>
</svg>
